<svg xmlns="http://www.w3.org/2000/svg" xmlns:xlink="http://www.w3.org/1999/xlink" width="480" zoomAndPan="magnify" viewBox="0 0 360 359.999987" height="480" preserveAspectRatio="xMidYMid meet" version="1.0"><defs><g/></defs><path stroke-linecap="butt" transform="matrix(1.249363, 0, 0, 1.249363, 48.529556, 17.049081)" fill="none" stroke-linejoin="miter" d="M 11.031982 97.988835 C 11.031982 157.903766 54.022657 197.842885 106.855852 197.842885 C 139.669462 197.842885 171.173029 187.672073 180.596585 173.467954 L 180.596585 151.947604 C 165.782779 173.092763 136.99935 194.0003 106.855852 194.0003 C 62.505108 194.0003 26.361675 155.605719 26.361675 97.988835 C 26.361675 40.375077 62.505108 1.980495 106.855852 1.980495 C 139.669462 1.980495 167.705635 24.623293 170.610241 46.140517 C 170.610241 46.140517 179.236516 46.515708 179.236516 35.591387 C 179.236516 10.794366 141.592317 -1.865216 106.855852 -1.865216 C 54.022657 -1.865216 11.031982 38.07703 11.031982 97.988835 Z M 11.031982 97.988835 " stroke="#bfbfbf" stroke-width="14.401874" stroke-opacity="1" stroke-miterlimit="4"/><g fill="#000000" fill-opacity="1"><g transform="translate(50.305993, 259.425406)"><g><path d="M 11.996094 -119.953125 C 11.996094 -45.101562 65.734375 4.796875 131.707031 4.796875 C 172.730469 4.796875 212.074219 -7.917969 223.828125 -25.667969 L 223.828125 -52.539062 C 205.355469 -26.148438 169.371094 0 131.707031 0 C 76.289062 0 31.1875 -47.980469 31.1875 -119.953125 C 31.1875 -191.921875 76.289062 -239.902344 131.707031 -239.902344 C 172.730469 -239.902344 207.753906 -211.59375 211.355469 -184.726562 C 211.355469 -184.726562 222.148438 -184.246094 222.148438 -197.917969 C 222.148438 -228.867188 175.128906 -244.699219 131.707031 -244.699219 C 65.734375 -244.699219 11.996094 -194.800781 11.996094 -119.953125 Z M 11.996094 -119.953125 "/></g></g></g><path stroke-linecap="butt" transform="matrix(0.96483, 0, 0, 0.96483, 44.407323, 85.903968)" fill="none" stroke-linejoin="miter" d="M 149.600278 136.069143 C 154.248119 142.644138 156.972856 152.935787 156.972856 161.105948 L 156.972856 273.998296 L 178.754552 273.998296 L 178.754552 161.105948 C 178.754552 152.935787 181.479289 142.644138 186.058303 136.069143 L 279.630529 1.990248 L 256.253668 1.990248 L 182.272823 131.486079 C 180.082507 135.27156 177.624981 136.931504 175.167455 136.931504 C 173.041918 136.931504 170.851602 135.27156 168.661287 132.016452 L 79.141752 1.990248 L 56.0321 1.990248 Z M 149.600278 136.069143 " stroke="#000000" stroke-width="10.200525" stroke-opacity="1" stroke-miterlimit="4"/></svg>