<svg xmlns="http://www.w3.org/2000/svg" xmlns:xlink="http://www.w3.org/1999/xlink" width="480" zoomAndPan="magnify" viewBox="0 0 360 359.999987" height="480" preserveAspectRatio="xMidYMid meet" version="1.0"><defs><g/></defs><path stroke-linecap="butt" transform="matrix(0.72, 0, 0, 0.72, 46.66141, 11.95272)" fill="none" stroke-linejoin="miter" d="M 21.167965 171.00752 C 21.167965 275.212172 95.940106 344.683749 187.84007 344.683749 C 244.914727 344.683749 299.710739 326.99169 316.100714 302.284657 L 316.100714 264.860609 C 290.335738 301.633615 240.27063 337.999721 187.84007 337.999721 C 110.702477 337.999721 47.833549 271.219117 47.833549 171.00752 C 47.833549 70.790498 110.702477 4.009894 187.84007 4.009894 C 244.914727 4.009894 293.677752 43.392493 298.734176 80.821966 C 298.734176 80.821966 313.735262 81.473008 313.735262 62.47344 C 313.735262 19.341927 248.256742 -2.674134 187.84007 -2.674134 C 95.940106 -2.674134 21.167965 66.797442 21.167965 171.00752 Z M 21.167965 171.00752 " stroke="#ffffff" stroke-width="12.524625" stroke-opacity="1" stroke-miterlimit="4"/><path stroke-linecap="butt" transform="matrix(0.72, 0, 0, 0.72, 42.480003, 81.891994)" fill="none" stroke-linejoin="miter" d="M 203.749577 184.215778 C 209.977876 193.021117 213.62371 206.812351 213.62371 217.755277 L 213.62371 368.997693 L 242.806655 368.997693 L 242.806655 217.755277 C 242.806655 206.812351 246.452489 193.021117 252.593982 184.215778 L 377.94664 4.587942 L 346.631533 4.587942 L 247.521282 178.074284 C 244.586169 183.146984 241.292983 185.371377 238.005222 185.371377 C 235.156915 185.371377 232.221802 183.146984 229.286689 178.79043 L 109.353954 4.587942 L 78.39692 4.587942 Z M 203.749577 184.215778 " stroke="#808080" stroke-width="27.33075" stroke-opacity="1" stroke-miterlimit="4"/><g fill="#ffffff" fill-opacity="1"><g transform="translate(98.156249, 347.571973)"><g><path d="M 91.042969 -133.023438 C 95.503906 -126.726562 98.128906 -116.757812 98.128906 -108.886719 L 98.128906 0 L 119.117188 0 L 119.117188 -108.886719 C 119.117188 -116.757812 121.742188 -126.726562 126.203125 -133.023438 L 216.460938 -262.375 L 193.894531 -262.375 L 122.527344 -137.484375 C 120.429688 -133.8125 118.070312 -132.238281 115.707031 -132.238281 C 113.609375 -132.238281 111.507812 -133.8125 109.410156 -136.960938 L 23.089844 -262.375 L 0.789062 -262.375 Z M 91.042969 -133.023438 "/></g></g></g></svg>